{"accessors":[{"name":"fe0ad98_obj_1_positions","componentType":5126,"count":1489,"min":[4.5295000076293945,-0.009399999864399433,-1.0702999830245972],"max":[6.636199951171875,2.3089001178741455,1.2718000411987305],"type":"VEC3","bufferView":0,"byteOffset":0},{"name":"fe0ad98_obj_1_normals","componentType":5126,"count":1489,"min":[-0.9993000030517578,-0.9973000288009644,-0.9990000128746033],"max":[0.9994000196456909,0.9991000294685364,0.9990000128746033],"type":"VEC3","bufferView":0,"byteOffset":17868},{"name":"fe0ad98_obj_1_texcoords","componentType":5126,"count":1489,"min":[0.004900000058114529,0.005799999926239252],"max":[0.9988999962806702,0.9923999905586243],"type":"VEC2","bufferView":1,"byteOffset":0},{"name":"fe0ad98_obj_1_0_indices","componentType":5123,"count":4527,"min":[0],"max":[1488],"type":"SCALAR","bufferView":2,"byteOffset":0}],"asset":{"generator":"obj2gltf","version":"2.0"},"buffers":[{"name":"PAN","byteLength":56704,"uri":"data:application/octet-stream;base64,"}],"bufferViews":[{"name":"bufferView_0","buffer":0,"byteLength":35736,"byteOffset":0,"byteStride":12,"target":34962},{"name":"bufferView_1","buffer":0,"byteLength":11912,"byteOffset":35736,"byteStride":8,"target":34962},{"name":"bufferView_2","buffer":0,"byteLength":9056,"byteOffset":47648,"target":34963}],"materials":[{"name":"Material__41","pbrMetallicRoughness":{"baseColorFactor":[0.588,0.588,0.588,1],"metallicFactor":0,"roughnessFactor":0.99},"emissiveFactor":[0.588,0.588,0.588],"alphaMode":"OPAQUE","doubleSided":false}],"meshes":[{"name":"fe0ad98_obj_1","primitives":[{"attributes":{"POSITION":0,"NORMAL":1,"TEXCOORD_0":2},"indices":3,"material":0,"mode":4}]}],"nodes":[{"name":"fe0ad98_obj","mesh":0}],"scene":0,"scenes":[{"nodes":[0]}]}
