{"accessors":[{"name":"Node-Mesh_positions","componentType":5126,"count":44706,"min":[-2.823780059814453,-1.281370997428894,-4.542846202850342],"max":[2.9389209747314453,1.0472890138626099,5.181274890899658],"type":"VEC3","bufferView":0,"byteOffset":0},{"name":"Node-Mesh_normals","componentType":5126,"count":44706,"min":[-0.9998676776885986,-0.9999871253967285,-0.9999160170555115],"max":[0.9998180270195007,0.9999415874481201,0.9999837875366211],"type":"VEC3","bufferView":0,"byteOffset":536472},{"name":"Node-Mesh_0_indices","componentType":5123,"count":3906,"min":[0],"max":[3107],"type":"SCALAR","bufferView":1,"byteOffset":0},{"name":"Node-Mesh_1_indices","componentType":5123,"count":22209,"min":[3108],"max":[24844],"type":"SCALAR","bufferView":1,"byteOffset":7812},{"name":"Node-Mesh_2_indices","componentType":5123,"count":1590,"min":[24845],"max":[26400],"type":"SCALAR","bufferView":1,"byteOffset":52232},{"name":"Node-Mesh_3_indices","componentType":5123,"count":6783,"min":[26401],"max":[32677],"type":"SCALAR","bufferView":1,"byteOffset":55412},{"name":"Node-Mesh_4_indices","componentType":5123,"count":564,"min":[32678],"max":[33207],"type":"SCALAR","bufferView":1,"byteOffset":68980},{"name":"Node-Mesh_5_indices","componentType":5123,"count":2724,"min":[33208],"max":[35885],"type":"SCALAR","bufferView":1,"byteOffset":70108},{"name":"Node-Mesh_6_indices","componentType":5123,"count":1668,"min":[35886],"max":[37499],"type":"SCALAR","bufferView":1,"byteOffset":75556},{"name":"Node-Mesh_7_indices","componentType":5123,"count":1620,"min":[37500],"max":[39093],"type":"SCALAR","bufferView":1,"byteOffset":78892},{"name":"Node-Mesh_8_indices","componentType":5123,"count":2256,"min":[39094],"max":[40761],"type":"SCALAR","bufferView":1,"byteOffset":82132},{"name":"Node-Mesh_9_indices","componentType":5123,"count":564,"min":[40762],"max":[41301],"type":"SCALAR","bufferView":1,"byteOffset":86644},{"name":"Node-Mesh_10_indices","componentType":5123,"count":942,"min":[41302],"max":[42043],"type":"SCALAR","bufferView":1,"byteOffset":87772},{"name":"Node-Mesh_11_indices","componentType":5123,"count":42,"min":[42044],"max":[42085],"type":"SCALAR","bufferView":1,"byteOffset":89656},{"name":"Node-Mesh_12_indices","componentType":5123,"count":2154,"min":[42086],"max":[44171],"type":"SCALAR","bufferView":1,"byteOffset":89740},{"name":"Node-Mesh_13_indices","componentType":5123,"count":564,"min":[44172],"max":[44705],"type":"SCALAR","bufferView":1,"byteOffset":94048}],"asset":{"generator":"obj2gltf","version":"2.0"},"buffers":[{"name":"model","byteLength":1168120,"uri":"data:application/octet-stream;base64,"}],"bufferViews":[{"name":"bufferView_0","buffer":0,"byteLength":1072944,"byteOffset":0,"byteStride":12,"target":34962},{"name":"bufferView_1","buffer":0,"byteLength":95176,"byteOffset":1072944,"target":34963}],"materials":[{"name":"mat19","pbrMetallicRoughness":{"baseColorFactor":[0.87,0.6,0.27,1],"metallicFactor":0,"roughnessFactor":1},"emissiveFactor":[0,0,0],"alphaMode":"OPAQUE","doubleSided":false},{"name":"mat15","pbrMetallicRoughness":{"baseColorFactor":[0.81,0.85,0.86,1],"metallicFactor":0,"roughnessFactor":1},"emissiveFactor":[0,0,0],"alphaMode":"OPAQUE","doubleSided":false},{"name":"mat20","pbrMetallicRoughness":{"baseColorFactor":[0.47,0.33,0.28,1],"metallicFactor":0,"roughnessFactor":1},"emissiveFactor":[0,0,0],"alphaMode":"OPAQUE","doubleSided":false},{"name":"mat13","pbrMetallicRoughness":{"baseColorFactor":[1,0.6,0,1],"metallicFactor":0,"roughnessFactor":1},"emissiveFactor":[0,0,0],"alphaMode":"OPAQUE","doubleSided":false},{"name":"mat4","pbrMetallicRoughness":{"baseColorFactor":[0,0.74,0.83,1],"metallicFactor":0,"roughnessFactor":1},"emissiveFactor":[0,0,0],"alphaMode":"OPAQUE","doubleSided":false},{"name":"mat9","pbrMetallicRoughness":{"baseColorFactor":[0.55,0.76,0.29,1],"metallicFactor":0,"roughnessFactor":1},"emissiveFactor":[0,0,0],"alphaMode":"OPAQUE","doubleSided":false},{"name":"mat14","pbrMetallicRoughness":{"baseColorFactor":[1,0.34,0.13,1],"metallicFactor":0,"roughnessFactor":1},"emissiveFactor":[0,0,0],"alphaMode":"OPAQUE","doubleSided":false},{"name":"mat8","pbrMetallicRoughness":{"baseColorFactor":[0.96,0.26,0.21,1],"metallicFactor":0,"roughnessFactor":1},"emissiveFactor":[0,0,0],"alphaMode":"OPAQUE","doubleSided":false},{"name":"mat3","pbrMetallicRoughness":{"baseColorFactor":[0.5,0.87,0.92,1],"metallicFactor":0,"roughnessFactor":1},"emissiveFactor":[0,0,0],"alphaMode":"OPAQUE","doubleSided":false},{"name":"mat5","pbrMetallicRoughness":{"baseColorFactor":[0.01,0.61,0.9,1],"metallicFactor":0,"roughnessFactor":1},"emissiveFactor":[0,0,0],"alphaMode":"OPAQUE","doubleSided":false},{"name":"mat18","pbrMetallicRoughness":{"baseColorFactor":[1,0.8,0.53,1],"metallicFactor":0,"roughnessFactor":1},"emissiveFactor":[0,0,0],"alphaMode":"OPAQUE","doubleSided":false},{"name":"mat21","pbrMetallicRoughness":{"baseColorFactor":[1,1,1,1],"metallicFactor":0,"roughnessFactor":1},"emissiveFactor":[0,0,0],"alphaMode":"OPAQUE","doubleSided":false},{"name":"mat22","pbrMetallicRoughness":{"baseColorFactor":[0.62,0.62,0.62,1],"metallicFactor":0,"roughnessFactor":1},"emissiveFactor":[0,0,0],"alphaMode":"OPAQUE","doubleSided":false},{"name":"mat12","pbrMetallicRoughness":{"baseColorFactor":[1,0.92,0.23,1],"metallicFactor":0,"roughnessFactor":1},"emissiveFactor":[0,0,0],"alphaMode":"OPAQUE","doubleSided":false}],"meshes":[{"name":"Node-Mesh","primitives":[{"attributes":{"POSITION":0,"NORMAL":1},"indices":2,"material":0,"mode":4},{"attributes":{"POSITION":0,"NORMAL":1},"indices":3,"material":1,"mode":4},{"attributes":{"POSITION":0,"NORMAL":1},"indices":4,"material":2,"mode":4},{"attributes":{"POSITION":0,"NORMAL":1},"indices":5,"material":3,"mode":4},{"attributes":{"POSITION":0,"NORMAL":1},"indices":6,"material":4,"mode":4},{"attributes":{"POSITION":0,"NORMAL":1},"indices":7,"material":5,"mode":4},{"attributes":{"POSITION":0,"NORMAL":1},"indices":8,"material":6,"mode":4},{"attributes":{"POSITION":0,"NORMAL":1},"indices":9,"material":7,"mode":4},{"attributes":{"POSITION":0,"NORMAL":1},"indices":10,"material":8,"mode":4},{"attributes":{"POSITION":0,"NORMAL":1},"indices":11,"material":9,"mode":4},{"attributes":{"POSITION":0,"NORMAL":1},"indices":12,"material":10,"mode":4},{"attributes":{"POSITION":0,"NORMAL":1},"indices":13,"material":11,"mode":4},{"attributes":{"POSITION":0,"NORMAL":1},"indices":14,"material":12,"mode":4},{"attributes":{"POSITION":0,"NORMAL":1},"indices":15,"material":13,"mode":4}]}],"nodes":[{"name":"Node","mesh":0}],"scene":0,"scenes":[{"nodes":[0]}]}
