{"accessors":[{"name":"Node-Mesh_positions","componentType":5126,"count":9668,"min":[-1.6983269453048706,-0.8475915789604187,-2.1042089462280273],"max":[1.48117196559906,0.791644275188446,1.3975499868392944],"type":"VEC3","bufferView":0,"byteOffset":0},{"name":"Node-Mesh_normals","componentType":5126,"count":9668,"min":[-0.9988986849784851,-0.9987592101097107,-0.9921751022338867],"max":[0.9993103742599487,0.997550904750824,0.9959169030189514],"type":"VEC3","bufferView":0,"byteOffset":116016},{"name":"Node-Mesh_0_indices","componentType":5123,"count":4347,"min":[0],"max":[2704],"type":"SCALAR","bufferView":1,"byteOffset":0},{"name":"Node-Mesh_1_indices","componentType":5123,"count":753,"min":[2705],"max":[3183],"type":"SCALAR","bufferView":1,"byteOffset":8696},{"name":"Node-Mesh_2_indices","componentType":5123,"count":7521,"min":[3184],"max":[8182],"type":"SCALAR","bufferView":1,"byteOffset":10204},{"name":"Node-Mesh_3_indices","componentType":5123,"count":33,"min":[8183],"max":[8205],"type":"SCALAR","bufferView":1,"byteOffset":25248},{"name":"Node-Mesh_4_indices","componentType":5123,"count":144,"min":[8206],"max":[8349],"type":"SCALAR","bufferView":1,"byteOffset":25316},{"name":"Node-Mesh_5_indices","componentType":5123,"count":201,"min":[8350],"max":[8500],"type":"SCALAR","bufferView":1,"byteOffset":25604},{"name":"Node-Mesh_6_indices","componentType":5123,"count":318,"min":[8501],"max":[8712],"type":"SCALAR","bufferView":1,"byteOffset":26008},{"name":"Node-Mesh_7_indices","componentType":5123,"count":264,"min":[8713],"max":[8854],"type":"SCALAR","bufferView":1,"byteOffset":26644},{"name":"Node-Mesh_8_indices","componentType":5123,"count":696,"min":[8855],"max":[9302],"type":"SCALAR","bufferView":1,"byteOffset":27172},{"name":"Node-Mesh_9_indices","componentType":5123,"count":207,"min":[9303],"max":[9427],"type":"SCALAR","bufferView":1,"byteOffset":28564},{"name":"Node-Mesh_10_indices","componentType":5123,"count":408,"min":[9428],"max":[9667],"type":"SCALAR","bufferView":1,"byteOffset":28980}],"asset":{"generator":"obj2gltf","version":"2.0"},"buffers":[{"name":"model","byteLength":261828,"uri":"data:application/octet-stream;base64,"}],"bufferViews":[{"name":"bufferView_0","buffer":0,"byteLength":232032,"byteOffset":0,"byteStride":12,"target":34962},{"name":"bufferView_1","buffer":0,"byteLength":29796,"byteOffset":232032,"target":34963}],"materials":[{"name":"mat21","pbrMetallicRoughness":{"baseColorFactor":[1,1,1,1],"metallicFactor":0,"roughnessFactor":1},"emissiveFactor":[0,0,0],"alphaMode":"OPAQUE","doubleSided":false},{"name":"mat8","pbrMetallicRoughness":{"baseColorFactor":[0.96,0.26,0.21,1],"metallicFactor":0,"roughnessFactor":1},"emissiveFactor":[0,0,0],"alphaMode":"OPAQUE","doubleSided":false},{"name":"mat22","pbrMetallicRoughness":{"baseColorFactor":[0.62,0.62,0.62,1],"metallicFactor":0,"roughnessFactor":1},"emissiveFactor":[0,0,0],"alphaMode":"OPAQUE","doubleSided":false},{"name":"mat25","pbrMetallicRoughness":{"baseColorFactor":[0.92,0.95,0.94,0.4],"metallicFactor":0,"roughnessFactor":0.7},"emissiveFactor":[0,0,0],"alphaMode":"BLEND","doubleSided":true},{"name":"mat3","pbrMetallicRoughness":{"baseColorFactor":[0.5,0.87,0.92,1],"metallicFactor":0,"roughnessFactor":1},"emissiveFactor":[0,0,0],"alphaMode":"OPAQUE","doubleSided":false},{"name":"mat24","pbrMetallicRoughness":{"baseColorFactor":[0.92,0.95,0.94,0.4],"metallicFactor":0,"roughnessFactor":0.7},"emissiveFactor":[0,0,0],"alphaMode":"BLEND","doubleSided":true},{"name":"mat17","pbrMetallicRoughness":{"baseColorFactor":[0.27,0.35,0.39,1],"metallicFactor":0,"roughnessFactor":1},"emissiveFactor":[0,0,0],"alphaMode":"OPAQUE","doubleSided":false},{"name":"mat15","pbrMetallicRoughness":{"baseColorFactor":[0.81,0.85,0.86,1],"metallicFactor":0,"roughnessFactor":1},"emissiveFactor":[0,0,0],"alphaMode":"OPAQUE","doubleSided":false},{"name":"mat12","pbrMetallicRoughness":{"baseColorFactor":[1,0.92,0.23,1],"metallicFactor":0,"roughnessFactor":1},"emissiveFactor":[0,0,0],"alphaMode":"OPAQUE","doubleSided":false},{"name":"mat5","pbrMetallicRoughness":{"baseColorFactor":[0.01,0.61,0.9,1],"metallicFactor":0,"roughnessFactor":1},"emissiveFactor":[0,0,0],"alphaMode":"OPAQUE","doubleSided":false},{"name":"mat23","pbrMetallicRoughness":{"baseColorFactor":[0.1,0.1,0.1,1],"metallicFactor":0,"roughnessFactor":1},"emissiveFactor":[0,0,0],"alphaMode":"OPAQUE","doubleSided":false}],"meshes":[{"name":"Node-Mesh","primitives":[{"attributes":{"POSITION":0,"NORMAL":1},"indices":2,"material":0,"mode":4},{"attributes":{"POSITION":0,"NORMAL":1},"indices":3,"material":1,"mode":4},{"attributes":{"POSITION":0,"NORMAL":1},"indices":4,"material":2,"mode":4},{"attributes":{"POSITION":0,"NORMAL":1},"indices":5,"material":3,"mode":4},{"attributes":{"POSITION":0,"NORMAL":1},"indices":6,"material":4,"mode":4},{"attributes":{"POSITION":0,"NORMAL":1},"indices":7,"material":5,"mode":4},{"attributes":{"POSITION":0,"NORMAL":1},"indices":8,"material":6,"mode":4},{"attributes":{"POSITION":0,"NORMAL":1},"indices":9,"material":7,"mode":4},{"attributes":{"POSITION":0,"NORMAL":1},"indices":10,"material":8,"mode":4},{"attributes":{"POSITION":0,"NORMAL":1},"indices":11,"material":9,"mode":4},{"attributes":{"POSITION":0,"NORMAL":1},"indices":12,"material":10,"mode":4}]}],"nodes":[{"name":"Node","mesh":0}],"scene":0,"scenes":[{"nodes":[0]}]}
